<?xml version="1.0" standalone="no"?>
<!DOCTYPE svg PUBLIC "-//W3C//DTD SVG 20010904//EN"
 "http://www.w3.org/TR/2001/REC-SVG-20010904/DTD/svg10.dtd">
<svg version="1.0" xmlns="http://www.w3.org/2000/svg"
 width="580.000000pt" height="387.000000pt" viewBox="0 0 580.000000 387.000000"
 preserveAspectRatio="xMidYMid meet">

<g transform="translate(0.000000,387.000000) scale(0.100000,-0.100000)"
fill="#000000" stroke="none">
<path d="M2187 3018 c-15 -33 -26 -62 -25 -63 2 -1 99 -48 215 -105 117 -57
211 -105 209 -107 -2 -3 -23 5 -46 17 -23 12 -44 19 -47 17 -14 -15 37 -58
116 -97 50 -24 89 -46 87 -48 -2 -2 -40 15 -85 37 l-81 41 22 -45 c21 -44 28
-48 173 -118 194 -93 425 -209 403 -202 -10 3 -26 8 -35 11 -10 4 3 -15 28
-42 69 -73 79 -92 79 -150 0 -62 20 -88 38 -48 7 14 12 41 12 60 0 19 7 48 15
64 l15 29 -45 22 c-25 12 -43 24 -41 26 2 3 23 -5 46 -17 23 -12 43 -20 45
-18 8 10 26 50 23 53 -2 1 -16 10 -33 19 -16 10 -21 14 -10 10 32 -11 58 -10
62 3 3 8 -37 33 -101 64 -58 29 -104 54 -102 56 2 2 50 -19 105 -47 56 -28
106 -48 111 -45 16 10 12 -1 -35 -95 -27 -54 -45 -103 -45 -124 0 -18 -9 -53
-20 -77 -29 -66 -26 -121 9 -162 26 -29 39 -34 108 -46 141 -23 275 -106 318
-198 21 -43 35 -49 74 -29 16 9 44 16 61 16 28 0 33 6 72 84 l42 84 62 -31
c35 -17 62 -33 60 -35 -2 -2 -27 8 -55 22 -28 14 -54 26 -59 26 -5 0 -28 -41
-51 -90 l-41 -91 23 -30 c18 -26 22 -43 22 -107 -1 -88 -18 -137 -117 -338
-33 -67 -58 -130 -56 -140 4 -25 472 -257 499 -249 11 4 23 14 28 23 11 22 32
245 34 359 1 116 -29 415 -48 481 -15 48 -20 54 -73 82 -31 16 -53 29 -49 30
4 0 25 -9 47 -20 50 -26 57 -25 64 5 9 36 -11 68 -79 122 -59 48 -125 125
-125 145 0 6 3 8 6 5 4 -3 15 4 25 17 29 36 72 49 144 43 52 -4 65 -2 65 10 0
18 -59 43 -100 43 -25 0 -45 13 -91 57 -32 31 -59 50 -59 43 0 -7 -10 2 -22
21 -17 26 -53 49 -143 94 -170 85 -399 195 -408 195 -3 0 -18 -21 -31 -47 -14
-27 -25 -44 -26 -40 0 4 7 21 15 38 l16 29 -133 64 c-73 35 -209 101 -303 146
-93 45 -206 99 -250 120 -44 21 -169 81 -279 134 -109 53 -204 96 -210 96 -6
-1 -23 -28 -39 -62z m368 -124 c199 -91 685 -332 685 -339 0 -13 -697 319
-835 398 -72 41 -42 29 150 -59z m195 -224 c74 -38 131 -69 125 -69 -5 0 -71
31 -145 69 -74 38 -130 69 -125 69 6 0 71 -31 145 -69z m5 -30 c3 -6 -1 -7 -9
-4 -18 7 -21 14 -7 14 6 0 13 -4 16 -10z m-20 -20 c3 -6 -1 -7 -9 -4 -18 7
-21 14 -7 14 6 0 13 -4 16 -10z m105 -20 c61 -31 86 -37 75 -20 -3 6 -2 10 4
10 15 0 23 -18 9 -22 -7 -3 38 -28 100 -58 62 -29 110 -55 108 -57 -2 -2 -86
36 -187 86 -101 49 -180 90 -176 90 4 1 34 -12 67 -29z m14 -36 c53 -26 95
-49 92 -51 -3 -4 -184 82 -195 93 -11 11 15 0 103 -42z m-30 -20 c32 -14 55
-28 53 -31 -3 -2 -31 9 -63 26 -73 37 -66 40 10 5z m216 -14 c41 -21 71 -39
65 -39 -5 0 -44 18 -85 39 -41 21 -70 39 -65 39 6 0 44 -18 85 -39z m-30 -75
c58 -30 102 -54 98 -54 -9 -1 -218 100 -218 105 0 9 20 0 120 -51z m94 -12
c75 -36 134 -68 132 -70 -3 -4 -265 123 -275 132 -13 13 20 -1 143 -62z m387
47 c38 -20 39 -21 25 -48 -8 -15 -37 -76 -66 -137 l-52 -110 -13 32 c-10 24
-21 32 -44 35 l-30 3 59 123 c32 67 64 122 70 122 6 0 29 -9 51 -20z m-128
-65 c-3 -9 -8 -14 -10 -11 -3 3 -2 9 2 15 9 16 15 13 8 -4z m197 -16 c12 -8
11 -9 -6 -4 -14 3 -24 0 -27 -9 -4 -9 8 -20 34 -31 22 -10 37 -20 35 -22 -2
-2 -20 4 -40 14 -32 15 -38 15 -46 3 -14 -23 -12 -28 18 -45 23 -14 12 -13
-25 2 -9 4 -53 -62 -53 -80 0 -2 36 -21 80 -42 45 -20 79 -39 77 -42 -3 -2
-39 13 -82 34 -74 37 -77 37 -91 19 -23 -33 -17 -54 24 -75 20 -11 33 -20 27
-20 -5 0 -21 6 -35 14 -14 8 -30 14 -36 15 -8 0 -54 -80 -54 -95 0 -3 48 -29
108 -59 59 -30 104 -55 100 -55 -15 -1 -218 104 -218 112 0 16 179 377 187
377 4 0 15 -5 23 -11z m-415 -19 c3 -6 -1 -7 -9 -4 -18 7 -21 14 -7 14 6 0 13
-4 16 -10z m505 -20 c30 -16 51 -29 45 -29 -5 0 -35 13 -65 29 -30 16 -50 29
-45 29 6 0 35 -13 65 -29z m-475 -40 c3 -6 -1 -7 -9 -4 -18 7 -21 14 -7 14 6
0 13 -4 16 -10z m460 0 c3 -6 -1 -7 -9 -4 -18 7 -21 14 -7 14 6 0 13 -4 16
-10z m141 -28 c-5 -4 -66 26 -66 33 0 3 16 -3 35 -12 19 -9 33 -18 31 -21z
m-76 -2 c42 -21 52 -48 26 -69 -10 -9 -31 -3 -90 25 -42 20 -76 38 -76 40 0 5
43 -12 100 -41 53 -27 70 -26 70 4 0 10 -17 26 -42 38 -24 12 -39 22 -35 22 4
1 26 -8 47 -19z m-94 -50 c60 -27 117 -50 126 -50 21 0 53 44 43 60 -8 13 8
13 40 -2 29 -13 29 -23 0 -91 -18 -43 -30 -45 -93 -14 -26 13 -90 41 -142 62
-52 21 -97 40 -98 41 -4 3 8 44 12 44 2 0 52 -22 112 -50z m209 32 c-3 -3 -11
0 -18 7 -9 10 -8 11 6 5 10 -3 15 -9 12 -12z m121 -23 c27 -29 29 -36 34 -137
4 -72 11 -117 22 -137 9 -17 55 -67 102 -111 90 -85 111 -122 57 -103 -18 6
-32 20 -35 34 -7 26 -72 82 -83 71 -3 -3 2 -15 12 -26 18 -20 17 -20 -6 -20
-16 0 -39 15 -64 40 -45 46 -72 50 -149 24 -26 -9 -49 -14 -51 -12 -2 2 17 19
43 38 94 70 134 203 94 314 -11 31 -17 56 -13 56 4 0 20 -14 37 -31z m-71 7
c10 -7 20 -19 21 -27 1 -8 8 -28 15 -45 9 -24 10 -40 2 -65 l-11 -34 5 41 c3
24 0 51 -7 65 -12 22 -15 19 -56 -62 -54 -106 -57 -98 -4 12 43 90 48 109 26
109 -8 0 -18 5 -21 10 -9 14 8 12 30 -4z m142 -138 c-2 -18 -4 -6 -4 27 0 33
2 48 4 33 2 -15 2 -42 0 -60z m-347 -8 c0 -6 -9 -2 -20 7 -11 10 -20 19 -20
21 0 1 9 -2 20 -8 11 -6 20 -15 20 -20z m-100 -35 c59 -30 63 -30 86 -8 12 12
16 13 13 4 -12 -35 -37 -36 -101 -4 -35 18 -59 32 -55 32 4 1 30 -10 57 -24z
m-247 -29 c-6 -40 -2 -44 129 -101 61 -27 90 -46 98 -63 6 -14 9 -26 8 -28 -2
-2 -34 8 -70 21 -37 13 -89 27 -117 31 -41 5 -57 13 -81 41 -31 35 -37 64 -20
107 7 18 17 26 34 26 23 0 24 -3 19 -34z m557 -18 c-23 -44 -77 -108 -93 -108
-5 0 5 11 21 25 16 13 42 49 58 79 34 64 46 68 14 4z m137 5 c-3 -10 -5 -4 -5
12 0 17 2 24 5 18 2 -7 2 -21 0 -30z m-224 -8 c-3 -9 -8 -14 -10 -11 -3 3 -2
9 2 15 9 16 15 13 8 -4z m-28 -62 c-12 -29 -13 -38 -3 -45 10 -5 8 -8 -5 -8
-9 0 -23 -11 -29 -25 -6 -14 -14 -25 -18 -25 -14 0 -121 52 -117 57 3 2 28 -7
56 -21 28 -14 53 -26 56 -26 3 0 20 29 36 65 33 70 49 89 24 28z m312 -227
c75 -37 112 -61 120 -78 37 -81 50 -312 24 -433 -23 -105 -32 -98 -27 20 6
166 -2 201 -59 253 -58 52 -131 96 -145 87 -6 -3 -9 -50 -9 -113 1 -84 -4
-120 -20 -165 -25 -72 -81 -177 -93 -177 -8 0 -47 17 -56 25 -2 2 17 44 43 94
76 153 94 264 54 350 l-20 45 32 73 c18 40 36 73 40 73 3 0 56 -24 116 -54z
m18 24 c3 -5 2 -10 -4 -10 -5 0 -13 5 -16 10 -3 6 -2 10 4 10 5 0 13 -4 16
-10z"/>
<path d="M3455 3029 c-55 -27 -197 -96 -315 -153 -138 -67 -209 -106 -199
-110 9 -4 58 13 115 40 293 137 397 184 400 181 2 -2 -102 -57 -232 -121 -129
-65 -234 -120 -231 -122 2 -2 26 -15 53 -28 l49 -24 47 24 c26 13 51 24 55 24
4 -1 -13 -12 -39 -26 -50 -25 -63 -40 -28 -31 11 3 18 1 14 -4 -11 -18 27 -9
84 20 51 26 91 65 79 78 -3 2 -24 -5 -47 -17 -23 -12 -44 -20 -46 -17 -2 2 92
50 209 107 116 57 213 104 215 105 1 1 -10 30 -25 63 -17 36 -34 61 -43 61 -8
0 -60 -23 -115 -50z"/>
<path d="M3216 2683 l-50 -25 25 -14 c34 -19 36 -18 59 26 11 22 19 40 18 40
-2 -1 -25 -12 -52 -27z"/>
<path d="M2482 2560 l-83 -40 16 -29 c8 -17 15 -34 15 -38 -1 -4 -12 14 -26
40 -20 39 -29 47 -45 42 -11 -4 -127 -58 -257 -122 -229 -110 -291 -149 -293
-182 0 -11 -2 -12 -6 -3 -3 9 -25 -6 -63 -42 -45 -43 -66 -56 -90 -56 -41 0
-100 -25 -100 -43 0 -12 13 -14 65 -10 72 6 115 -7 144 -43 10 -13 21 -20 25
-17 3 3 6 2 6 -4 0 -18 -58 -90 -100 -124 -101 -82 -104 -85 -104 -122 0 -20
3 -40 7 -44 4 -4 28 3 52 15 67 32 69 26 3 -8 -50 -26 -58 -35 -72 -77 -9 -26
-20 -104 -26 -173 -6 -69 -15 -161 -20 -205 -8 -73 -3 -196 16 -389 6 -68 27
-107 56 -105 7 0 119 53 248 117 183 92 236 122 238 138 2 12 -26 79 -62 150
-117 235 -143 359 -88 433 12 17 19 37 16 45 -8 22 56 22 97 0 39 -20 53 -14
75 31 43 91 179 175 318 197 68 10 81 16 107 45 35 41 39 96 9 162 -11 24 -20
59 -20 77 0 19 -15 65 -35 104 -19 38 -35 71 -35 72 0 2 10 3 23 4 12 0 31 4
42 8 11 5 5 -1 -13 -13 -29 -19 -31 -23 -21 -44 6 -12 13 -23 14 -25 2 -2 21
6 44 17 22 12 44 21 48 21 4 -1 -13 -12 -40 -26 l-47 -25 15 -29 c8 -16 15
-46 15 -68 0 -42 21 -79 38 -68 7 4 12 31 12 59 0 60 10 78 84 156 48 50 49
52 18 36 -19 -9 -36 -15 -38 -13 -2 2 41 26 96 53 55 27 100 52 100 56 0 19
-31 13 -92 -17 -37 -19 -71 -34 -75 -34 -5 1 24 17 62 37 42 23 63 38 53 40
-9 2 -67 -21 -128 -52 -62 -31 -114 -54 -116 -52 -2 2 45 28 106 57 60 30 110
56 110 59 0 3 -36 24 -80 46 -73 36 -83 38 -113 27 -28 -10 -30 -10 -13 3 16
12 15 35 -2 35 -4 0 -44 -18 -90 -40z m-52 -172 l58 -123 -30 -3 c-22 -3 -33
-11 -43 -35 l-13 -32 -52 110 c-29 61 -58 122 -66 137 -14 27 -13 28 23 47 21
11 44 20 51 21 7 0 40 -55 72 -122z m290 112 c-8 -5 -19 -10 -25 -10 -5 0 -3
5 5 10 8 5 20 10 25 10 6 0 3 -5 -5 -10z m0 -25 c-25 -13 -49 -24 -55 -24 -5
0 10 11 35 24 25 13 50 24 55 24 6 0 -10 -11 -35 -24z m-42 10 c-6 -7 -200
-101 -213 -104 -5 -1 -16 12 -23 29 -7 18 -8 29 -2 25 5 -3 10 -12 10 -20 0
-28 21 -24 121 25 97 47 119 57 107 45z m-317 -249 c49 -102 89 -188 89 -193
0 -8 -163 -93 -178 -92 -4 0 32 20 81 45 48 24 87 46 87 49 0 13 -45 95 -52
95 -5 0 -23 -7 -39 -16 -17 -8 -33 -13 -37 -10 -3 3 -1 6 4 6 5 0 24 9 42 20
32 20 32 20 17 50 -9 17 -20 30 -25 30 -16 0 -194 -90 -203 -103 -6 -9 -7 -8
-5 3 3 11 134 84 202 112 5 2 -1 23 -13 47 -15 29 -27 41 -37 37 -37 -15 -46
-16 -21 -1 29 17 31 22 17 45 -8 12 -14 12 -45 -3 -49 -23 -59 -21 -12 4 41
22 52 55 15 44 -18 -5 -20 -4 -8 4 8 6 19 11 23 11 5 0 49 -83 98 -184z m-231
114 c-52 -27 -99 -49 -105 -49 -5 0 33 22 85 49 52 27 100 49 105 49 6 0 -33
-22 -85 -49z m550 46 c0 -2 -7 -7 -16 -10 -8 -3 -12 -2 -9 4 6 10 25 14 25 6z
m-547 -89 c-41 -20 -63 -37 -63 -49 0 -31 18 -29 91 7 39 20 73 34 75 32 3 -2
-30 -21 -72 -41 -59 -28 -80 -34 -90 -25 -29 24 -15 48 44 78 31 17 62 30 67
30 6 0 -18 -14 -52 -32z m512 23 c-3 -5 -11 -10 -16 -10 -6 0 -7 5 -4 10 3 6
11 10 16 10 6 0 7 -4 4 -10z m-635 -34 c0 -2 -7 -7 -16 -10 -8 -3 -12 -2 -9 4
6 10 25 14 25 6z m305 -17 c4 -11 5 -22 3 -23 -1 -1 -46 -20 -98 -41 -52 -21
-117 -49 -144 -62 -28 -12 -56 -23 -63 -23 -7 0 -20 17 -28 37 -29 68 -29 78
0 91 34 16 48 15 42 -2 -3 -7 1 -24 10 -36 20 -29 43 -24 164 34 52 24 97 45
101 45 4 1 10 -8 13 -20z m-427 -45 c-40 -111 0 -244 94 -314 26 -19 45 -36
43 -38 -2 -2 -25 3 -51 12 -77 26 -104 22 -149 -24 -25 -25 -48 -40 -64 -40
-23 0 -24 0 -6 20 10 11 16 23 12 26 -10 10 -59 -29 -82 -66 -13 -21 -33 -40
-44 -43 -43 -11 -20 27 65 107 47 44 93 94 102 111 11 20 18 65 22 137 5 101
7 108 34 137 17 17 33 31 37 31 4 0 -2 -25 -13 -56z m77 36 c-3 -5 -13 -10
-21 -10 -17 0 -17 -9 -4 -47 9 -25 9 -26 -4 -10 -14 18 -15 18 -26 -4 -7 -12
-10 -40 -7 -63 l5 -41 -11 34 c-8 25 -7 41 2 65 7 17 14 37 15 45 3 15 34 41
49 41 4 0 5 -4 2 -10z m-168 -142 c-2 -18 -4 -6 -4 27 0 33 2 48 4 33 2 -15 2
-42 0 -60z m232 -103 c0 -5 -18 24 -39 65 -21 41 -39 80 -39 85 0 6 18 -24 39
-65 21 -41 39 -79 39 -85z m213 52 c-64 -32 -89 -31 -101 4 -3 9 1 8 13 -4 22
-22 32 -21 86 8 25 13 50 24 55 24 6 0 -18 -14 -53 -32z m-445 -34 c-3 -10 -5
-2 -5 17 0 19 2 27 5 18 2 -10 2 -26 0 -35z m203 -85 c17 -16 27 -28 22 -28
-15 0 -70 64 -91 107 -32 64 -25 66 9 3 17 -30 44 -67 60 -82z m540 106 c17
-43 11 -72 -21 -109 -23 -26 -39 -35 -63 -35 -17 0 -69 -13 -116 -29 -47 -16
-86 -28 -88 -26 -1 1 2 13 8 26 8 16 39 36 98 63 132 59 135 62 129 102 -5 31
-4 34 19 34 17 0 27 -8 34 -26z m-471 -119 c16 -36 33 -65 36 -65 3 0 28 12
56 26 28 14 53 23 56 21 4 -5 -103 -57 -117 -57 -4 0 -12 11 -18 25 -6 14 -20
25 -29 25 -14 0 -15 2 -5 9 12 7 11 14 -2 39 -9 17 -16 33 -16 37 0 16 11 -2
39 -60z m186 -5 c-3 -5 -12 -10 -18 -10 -7 0 -6 4 3 10 19 12 23 12 15 0z
m-339 -171 c19 -39 34 -73 31 -75 -2 -2 -19 28 -37 66 -19 39 -38 70 -42 70
-5 0 -31 -12 -59 -26 -28 -14 -53 -24 -55 -21 -5 5 97 56 113 57 7 0 29 -32
49 -71z m-27 -42 l32 -73 -20 -45 c-41 -89 -23 -196 60 -361 22 -44 39 -81 37
-83 -9 -8 -48 -25 -56 -25 -13 0 -75 122 -97 189 -12 36 -18 89 -19 159 -1 68
-5 107 -12 109 -17 6 -133 -77 -168 -120 l-31 -39 1 -145 c0 -80 -2 -139 -6
-131 -37 67 -45 335 -14 453 l19 70 110 57 c61 32 115 57 121 58 6 0 25 -33
43 -73z m-154 43 c-3 -5 -11 -10 -16 -10 -6 0 -7 5 -4 10 3 6 11 10 16 10 6 0
7 -4 4 -10z"/>
<path d="M2541 1911 c-12 -8 -12 -15 2 -48 15 -39 20 -72 18 -130 -2 -67 -106
-147 -231 -179 -89 -23 -125 -13 -180 46 -33 36 -49 47 -60 40 -12 -7 -9 -16
16 -47 17 -21 46 -49 65 -61 30 -21 43 -23 109 -20 53 3 92 12 132 31 146 66
195 129 186 241 -6 73 -36 140 -57 127z"/>
<path d="M3224 1882 c-9 -20 -18 -65 -21 -99 -5 -50 -2 -70 16 -106 40 -83
177 -158 301 -165 66 -3 79 -1 109 20 19 12 48 40 65 61 25 31 28 40 16 47
-11 7 -27 -4 -60 -40 -55 -59 -91 -69 -180 -46 -81 21 -152 60 -196 108 -31
35 -34 44 -34 98 0 34 7 77 15 97 19 44 19 49 0 57 -10 4 -20 -6 -31 -32z"/>
<path d="M2278 1829 c-48 -25 -54 -36 -31 -62 11 -12 30 -39 43 -61 26 -43 73
-76 110 -76 l25 0 -31 25 c-47 37 -67 74 -73 136 l-6 57 -37 -19z"/>
<path d="M3480 1804 c0 -58 -23 -107 -69 -144 -34 -29 -35 -30 -11 -30 37 0
84 33 110 76 13 22 32 49 43 61 23 26 17 37 -34 63 l-39 20 0 -46z"/>
</g>
</svg>
